<?xml version="1.0" encoding="UTF-8"?>
<svg version="1.1" xmlns="http://www.w3.org/2000/svg" width="952" height="262">
<path d="M0 0 C16.71729223 14.14540112 29.42640685 33.14532315 32.58984375 55.19140625 C32.80643489 59.93966638 32.774965 64.68866296 32.77734375 69.44140625 C32.78958984 70.71371094 32.80183594 71.98601562 32.81445312 73.296875 C32.84703006 94.34157815 25.29021407 113.9769681 10.578125 129.22265625 C9.59392578 130.1971875 9.59392578 130.1971875 8.58984375 131.19140625 C7.74421875 132.07828125 6.89859375 132.96515625 6.02734375 133.87890625 C5.22296875 134.64203125 4.41859375 135.40515625 3.58984375 136.19140625 C3.04328125 136.72121094 2.49671875 137.25101563 1.93359375 137.796875 C-5.81769058 144.99222706 -14.71123781 149.75720131 -24.53515625 153.50390625 C-25.16744141 153.74633057 -25.79972656 153.98875488 -26.45117188 154.23852539 C-47.25876354 161.79061411 -72.63539332 160.70357577 -92.64013672 151.4543457 C-100.14003425 147.80638851 -106.8774753 143.38579492 -113.41015625 138.19140625 C-114.95703125 137.04671875 -114.95703125 137.04671875 -116.53515625 135.87890625 C-134.38032016 119.19755737 -144.83753516 96.10367433 -145.88305664 71.77050781 C-146.21201817 46.53234238 -136.05952728 23.81161331 -118.66015625 5.87890625 C-86.33869819 -25.992771 -35.41616716 -27.21452845 0 0 Z M-56.41015625 27.19140625 C-60.43872149 31.6558721 -63.09448233 36.05352562 -65.59765625 41.50390625 C-65.93990234 42.21224609 -66.28214844 42.92058594 -66.63476562 43.65039062 C-70.31121249 51.52441178 -71.78915038 59.15193217 -71.72265625 67.81640625 C-71.7177417 68.58911865 -71.71282715 69.36183105 -71.70776367 70.15795898 C-71.44018829 83.54084485 -69.11023093 95.49133157 -59.41015625 105.19140625 C-58.42015625 96.61140625 -57.43015625 88.03140625 -56.41015625 79.19140625 C-54.29888816 82.35830838 -54.07532513 83.61467654 -53.77734375 87.296875 C-53.65166016 88.77124023 -53.65166016 88.77124023 -53.5234375 90.27539062 C-53.40548828 91.81163086 -53.40548828 91.81163086 -53.28515625 93.37890625 C-53.19878906 94.41466797 -53.11242187 95.45042969 -53.0234375 96.51757812 C-52.81130176 99.07499233 -52.60719206 101.63279166 -52.41015625 104.19140625 C-48.79144994 102.98517081 -48.5733937 102.20894675 -46.84765625 98.94140625 C-46.22697266 97.78898437 -46.22697266 97.78898437 -45.59375 96.61328125 C-43.05053719 91.40934745 -41.89971415 86.70004138 -41.28515625 80.94140625 C-41.20168945 80.17924805 -41.11822266 79.41708984 -41.03222656 78.63183594 C-39.6769502 65.69309549 -40.044708 52.86790334 -46.41015625 41.19140625 C-47.25707031 39.63292969 -47.25707031 39.63292969 -48.12109375 38.04296875 C-51.38647029 31.84169161 -51.38647029 31.84169161 -56.41015625 27.19140625 Z M-128.41015625 56.19140625 C-127.46842939 70.3173091 -121.94206874 85.35480448 -111.41015625 95.19140625 C-100.6845589 104.52724845 -90.21842655 113.13412087 -75.41015625 113.19140625 C-77.65346146 109.45256424 -80.0241398 106.47865053 -83.16015625 103.44140625 C-88.04362804 98.695368 -93.34054084 93.33063707 -96.41015625 87.19140625 C-89.22046535 92.18017137 -82.54033248 97.51543489 -76.00732422 103.32910156 C-73.13779692 106.22001716 -73.13779692 106.22001716 -69.41015625 107.19140625 C-71.2362393 94.38156992 -76.90872143 85.77027986 -85.41015625 76.19140625 C-85.98765625 75.53011719 -86.56515625 74.86882812 -87.16015625 74.1875 C-97.31772227 63.27299998 -111.7024609 57.02308453 -126.49609375 56.234375 C-127.12773438 56.22019531 -127.759375 56.20601563 -128.41015625 56.19140625 Z M-26.0546875 75.72802734 C-29.12611965 79.04397913 -31.87922311 82.44801038 -34.41015625 86.19140625 C-34.96445313 86.99191406 -35.51875 87.79242188 -36.08984375 88.6171875 C-39.79267792 94.31317403 -41.57893247 99.45562738 -42.41015625 106.19140625 C-37.99395787 106.19140625 -35.85409559 103.37767864 -32.72265625 100.56640625 C-31.46510856 99.46175534 -30.20600347 98.35887476 -28.9453125 97.2578125 C-28.3383252 96.72687988 -27.73133789 96.19594727 -27.10595703 95.64892578 C-23.48091294 92.53324579 -19.6982378 89.33544703 -15.41015625 87.19140625 C-16.96805946 89.25751866 -18.53125302 91.31925264 -20.09765625 93.37890625 C-20.53271484 93.95705078 -20.96777344 94.53519531 -21.41601562 95.13085938 C-23.57333506 97.95934485 -25.70170296 100.47973589 -28.2421875 102.9921875 C-30.64416592 104.91409787 -30.64416592 104.91409787 -30.41015625 107.19140625 C-31.89515625 107.68640625 -31.89515625 107.68640625 -33.41015625 108.19140625 C-35.10898073 110.68900607 -35.10898073 110.68900607 -36.41015625 113.19140625 C-27.88175583 113.15366996 -21.77912563 110.2648688 -14.41015625 106.19140625 C-13.68054688 105.84335938 -12.9509375 105.4953125 -12.19921875 105.13671875 C-9.4380894 103.67778141 -7.58773435 101.41847476 -5.41015625 99.19140625 C-4.81074219 98.72089844 -4.21132812 98.25039062 -3.59375 97.765625 C5.57231202 90.53681288 10.82257177 80.05701175 14.58984375 69.19140625 C15.20859375 67.61359375 15.20859375 67.61359375 15.83984375 66.00390625 C16.73325852 62.65360085 16.72791236 59.6431214 16.58984375 56.19140625 C-0.04155975 55.65005858 -14.9305331 64.09657062 -26.0546875 75.72802734 Z " fill="#56CA3E" transform="translate(158.41015625,62.80859375)"/>
<path d="M0 0 C2.64880002 0.06996276 5.26905833 0.0005664 7.91699219 -0.08251953 C18.47979474 -0.13974834 24.51087517 1.91718342 32.03979492 9.36166382 C35.6197087 13.44193222 36.15732415 16.60262312 35.828125 21.97079468 C35.7672168 22.53972443 35.70630859 23.10865417 35.64355469 23.69482422 C32.17030288 24.85257482 29.28288021 24.76349074 25.64355469 24.69482422 C25.0250651 22.74169922 24.40657552 20.78857422 23.78808594 18.83544922 C22.20564624 15.87580091 20.43551903 14.55597467 17.64355469 12.69482422 C13.36442359 11.96625479 9.11525629 12.03564752 4.77856445 12.06347656 C2.71383427 12.06980039 0.6548425 12.02285203 -1.40917969 11.97216797 C-3.37661133 11.97023438 -3.37661133 11.97023438 -5.38378906 11.96826172 C-6.57738037 11.9622998 -7.77097168 11.95633789 -9.00073242 11.95019531 C-12.81353151 12.79625113 -14.63856544 13.73867925 -17.21031189 16.63296509 C-19.65186384 21.02524271 -19.22749994 25.98121533 -19.18847656 30.88232422 C-19.19658859 32.05819092 -19.20470062 33.23405762 -19.21305847 34.44555664 C-19.22150736 36.9267519 -19.21468177 39.40804004 -19.19360352 41.88916016 C-19.16902213 45.68296797 -19.21372458 49.47167817 -19.26464844 53.26513672 C-19.26427797 55.67920349 -19.25985661 58.09327375 -19.25097656 60.50732422 C-19.26828323 61.63871826 -19.2855899 62.7701123 -19.30342102 63.93579102 C-19.25731501 69.65718473 -19.25731501 69.65718473 -16.96884155 74.75421143 C-13.23204038 78.26652303 -9.97142992 79.45960737 -4.79394531 79.49169922 C-3.58480469 79.49943359 -2.37566406 79.50716797 -1.12988281 79.51513672 C0.73796875 79.48033203 0.73796875 79.48033203 2.64355469 79.44482422 C4.51140625 79.47962891 4.51140625 79.47962891 6.41699219 79.51513672 C14.13040752 79.49092356 14.13040752 79.49092356 20.95996094 76.29638672 C24.79891621 72.24649984 24.64297453 67.63800216 24.58105469 62.31982422 C24.60167969 59.14357422 24.62230469 55.96732422 24.64355469 52.69482422 C18.04355469 52.69482422 11.44355469 52.69482422 4.64355469 52.69482422 C4.64355469 49.39482422 4.64355469 46.09482422 4.64355469 42.69482422 C14.87355469 42.69482422 25.10355469 42.69482422 35.64355469 42.69482422 C37.9764787 74.57811909 37.9764787 74.57811909 32.56542969 83.02880859 C26.5858855 89.71049623 18.70473427 90.52582909 10.18716431 91.07905579 C7.6307752 91.19365955 5.07687108 91.26432236 2.51855469 91.31982422 C1.6857196 91.34924103 0.85288452 91.37865784 -0.00518799 91.40896606 C-8.53052483 91.61278603 -15.4095036 91.42298144 -21.83590698 85.33383179 C-24.13716869 82.882324 -26.24167737 80.30848014 -28.35644531 77.69482422 C-29.01644531 77.36482422 -29.67644531 77.03482422 -30.35644531 76.69482422 C-30.65977543 68.8365478 -30.88967256 60.9796796 -31.03000355 53.1169939 C-31.09741975 49.46413545 -31.18855007 45.81532343 -31.3371582 42.16479492 C-32.39060419 15.53018654 -32.39060419 15.53018654 -26.66520691 7.95362854 C-19.31756821 0.44173842 -10.03799062 -0.31496851 0 0 Z " fill="#232323" transform="translate(260.3564453125,89.30517578125)"/>
<path d="M0 0 C0.33 2.64 0.66 5.28 1 8 C1.43465576 7.43627686 1.86931152 6.87255371 2.31713867 6.29174805 C6.13378487 1.86829552 8.94617016 -0.52383236 14.86328125 -1.16796875 C17.01247909 -1.2166646 19.16303181 -1.2222727 21.3125 -1.1875 C22.37662109 -1.24357422 23.44074219 -1.29964844 24.53710938 -1.35742188 C31.0284147 -1.35346135 35.17606257 0.14670206 40.2109375 4.2890625 C46.29897951 10.50227377 46.51562055 17.72357191 46.45507812 26.05273438 C46.4174939 27.41144653 46.4174939 27.41144653 46.37915039 28.79760742 C46.31242455 31.56562998 46.3582943 34.31606268 46.41601562 37.08398438 C46.4260054 45.68673113 46.28380909 51.88624686 40.04296875 58.21484375 C33.74933122 63.37409356 29.3332332 63.3308758 21.375 63.5 C19.77205078 63.58121094 19.77205078 63.58121094 18.13671875 63.6640625 C17.08871094 63.68210937 16.04070313 63.70015625 14.9609375 63.71875 C14.01009277 63.74904297 13.05924805 63.77933594 12.07958984 63.81054688 C9 63 9 63 1 56 C0.67 66.89 0.34 77.78 0 89 C-3.63 89 -7.26 89 -11 89 C-11 59.63 -11 30.26 -11 0 C-3 -1 -3 -1 0 0 Z M0.92285156 19.86279297 C-2.13265676 26.93896224 -1.84272149 35.62428594 0 43 C2.10942329 46.74530257 4.32710849 48.82997423 8 51 C8.99 51.66 9.98 52.32 11 53 C13.94324946 53.44685722 16.9013087 53.37027235 19.875 53.375 C21.07962891 53.41173828 21.07962891 53.41173828 22.30859375 53.44921875 C23.09105469 53.45308594 23.87351562 53.45695312 24.6796875 53.4609375 C25.38851074 53.46915527 26.09733398 53.47737305 26.82763672 53.48583984 C30.13433795 52.74631012 31.69417608 51.4716166 34 49 C34.57936816 46.258436 34.83706109 44.10138535 34.8828125 41.34765625 C34.90979218 40.61050888 34.93677185 39.87336151 34.96456909 39.11387634 C35.01478934 37.55843746 35.0527037 36.0025587 35.07910156 34.4465332 C35.12482449 32.0716163 35.22376408 29.7030583 35.328125 27.33007812 C35.37040522 25.81519055 35.40957122 24.3002122 35.4453125 22.78515625 C35.47730743 22.0798024 35.50930237 21.37444855 35.54226685 20.64772034 C35.56682623 16.7999386 35.11027372 15.14184636 32.72241211 12.0703125 C27.79086721 8.32002098 22.63322422 8.73265973 16.62890625 9.109375 C9.56202706 10.10335924 4.59790624 13.78409614 0.92285156 19.86279297 Z " fill="#2A2A2A" transform="translate(642,116)"/>
<path d="M0 0 C1.17820312 0.00386719 2.35640625 0.00773437 3.5703125 0.01171875 C4.7975 0.03621094 6.0246875 0.06070313 7.2890625 0.0859375 C9.11824219 0.08787109 9.11824219 0.08787109 10.984375 0.08984375 C20.86893154 0.18696276 27.71977406 1.48928805 34.8984375 8.7109375 C39.867519 16.02295381 37.34944026 28.53706218 36.9140625 36.4609375 C22.3940625 36.4609375 7.8740625 36.4609375 -7.0859375 36.4609375 C-6.7559375 41.0809375 -6.4259375 45.7009375 -6.0859375 50.4609375 C-0.75384135 54.46000961 2.95077368 53.94226991 9.4140625 53.8984375 C10.45949219 53.91841797 11.50492187 53.93839844 12.58203125 53.95898438 C13.58878906 53.95833984 14.59554687 53.95769531 15.6328125 53.95703125 C17.00856445 53.95981079 17.00856445 53.95981079 18.41210938 53.96264648 C21.68574239 53.3061949 22.84548058 52.03135277 24.9140625 49.4609375 C26.18190374 46.32743033 26.18190374 46.32743033 26.9140625 43.4609375 C30.2140625 43.4609375 33.5140625 43.4609375 36.9140625 43.4609375 C37.75037705 51.10724192 37.75037705 51.10724192 35.53125 54.69921875 C33.74144491 56.75633239 31.93774379 58.63297006 29.9140625 60.4609375 C29.19387939 61.1425293 28.47369629 61.82412109 27.73168945 62.52636719 C22.84493989 65.88158801 17.20858168 65.32104413 11.46923828 65.36694336 C9.31119655 65.39811776 7.16675657 65.50914267 5.01171875 65.62304688 C-2.20492769 65.83064439 -7.73987704 64.96297511 -13.53515625 60.23046875 C-19.92548522 52.78210244 -19.64870178 44.51133604 -19.35522461 35.07128906 C-19.27311192 32.19955085 -19.29356335 29.34124245 -19.32617188 26.46875 C-19.27357776 13.32967986 -19.27357776 13.32967986 -16.36181641 8.74804688 C-14.34907834 6.99035234 -12.40102677 5.77615164 -10.0859375 4.4609375 C-9.46533447 3.75984863 -8.84473145 3.05875977 -8.20532227 2.33642578 C-5.38185699 -0.1621182 -3.72917262 -0.02858677 0 0 Z M-6.37109375 13.9375 C-8.74236482 18.15658149 -8.74236482 18.15658149 -8.0859375 26.4609375 C3.1340625 26.4609375 14.3540625 26.4609375 25.9140625 26.4609375 C26.88089799 16.49879943 26.88089799 16.49879943 24.26928711 12.81103516 C19.67289466 10.1762212 14.64372897 10.80662856 9.4765625 10.8359375 C8.34412109 10.80371094 7.21167969 10.77148438 6.04492188 10.73828125 C-0.7763525 10.57202925 -0.7763525 10.57202925 -6.37109375 13.9375 Z " fill="#2E2E2E" transform="translate(376.0859375,114.5390625)"/>
<path d="M0 0 C1.3096875 -0.00451172 2.619375 -0.00902344 3.96875 -0.01367188 C10.08849306 0.13808289 14.63710073 0.38138842 19.359375 4.51171875 C20.49119696 5.73548875 21.62160831 6.96056636 22.75 8.1875 C23.73355469 8.72890625 24.71710937 9.2703125 25.73046875 9.828125 C29.35064083 14.05749431 28.2537654 19.60644258 28.0625 24.9375 C27.959375 28.98 27.85625 33.0225 27.75 37.1875 C13.23 37.5175 -1.29 37.8475 -16.25 38.1875 C-16.25 42.4775 -16.25 46.7675 -16.25 51.1875 C-14.93 51.8475 -13.61 52.5075 -12.25 53.1875 C-11.92 53.5175 -11.59 53.8475 -11.25 54.1875 C-7.48743097 54.49562861 -3.71113356 54.46592143 0.0625 54.5 C1.65094727 54.54350586 1.65094727 54.54350586 3.27148438 54.58789062 C4.29177734 54.59626953 5.31207031 54.60464844 6.36328125 54.61328125 C7.29954346 54.62786377 8.23580566 54.64244629 9.20043945 54.6574707 C12.52750765 54.0441789 13.66244387 52.79657933 15.75 50.1875 C17.01784124 47.05399283 17.01784124 47.05399283 17.75 44.1875 C21.05 44.1875 24.35 44.1875 27.75 44.1875 C28.59959859 49.51680023 28.84001266 52.51488954 25.84570312 57.10961914 C20.72131809 62.69453209 16.87059962 66.12665834 8.95703125 66.5078125 C6.8599724 66.53394885 4.78287765 66.49538172 2.68774414 66.40185547 C0.55068849 66.31200339 -1.57041516 66.31974488 -3.70898438 66.33984375 C-9.93523324 66.28451222 -15.10855314 66.08206253 -19.98828125 61.8671875 C-21.10645617 60.66875923 -22.19437266 59.44137256 -23.25 58.1875 C-23.96051514 57.63594238 -24.67103027 57.08438477 -25.40307617 56.51611328 C-28.19797278 52.9922899 -27.97352558 49.63884264 -28.0625 45.25 C-28.08530029 44.37408203 -28.10810059 43.49816406 -28.1315918 42.59570312 C-28.16934672 40.73994167 -28.19551033 38.8839134 -28.2109375 37.02783203 C-28.24954421 34.2206417 -28.37340372 31.42549802 -28.5 28.62109375 C-28.68993356 20.82717111 -28.72930682 13.82579879 -23.6605835 7.51997375 C-16.78760873 0.41730645 -9.73136079 -0.51855359 0 0 Z M-15.53125 14.66796875 C-17.90822486 18.88256755 -17.90822486 18.88256755 -17.25 27.1875 C-5.7 27.1875 5.85 27.1875 17.75 27.1875 C18.56175346 18.05497431 18.56175346 18.05497431 16.03125 14.10546875 C10.92153071 11.11871616 6.06237328 11.42360881 0.25 11.5 C-0.87792969 11.47228516 -2.00585938 11.44457031 -3.16796875 11.41601562 C-9.96346028 11.29271106 -9.96346028 11.29271106 -15.53125 14.66796875 Z " fill="#2B2B2B" transform="translate(916.25,113.8125)"/>
<path d="M0 0 C2.05720766 0.09554663 4.09393111 0.08211675 6.15283203 0.05566406 C12.82260105 0.19909996 17.28650284 0.49432796 22.11767578 5.36035156 C23.1848381 6.68055847 24.24443102 8.00700224 25.28955078 9.34472656 C25.94955078 9.67472656 26.60955078 10.00472656 27.28955078 10.34472656 C27.28955078 11.00472656 27.28955078 11.66472656 27.28955078 12.34472656 C27.94955078 12.34472656 28.60955078 12.34472656 29.28955078 12.34472656 C29.28955078 20.59472656 29.28955078 28.84472656 29.28955078 37.34472656 C14.76955078 37.34472656 0.24955078 37.34472656 -14.71044922 37.34472656 C-15.17472981 49.7481678 -15.17472981 49.7481678 -9.71044922 54.34472656 C-7.17961299 54.93836925 -7.17961299 54.93836925 -4.42919922 54.84082031 C-3.42244141 54.84146484 -2.41568359 54.84210938 -1.37841797 54.84277344 C-0.33298828 54.82279297 0.71244141 54.8028125 1.78955078 54.78222656 C3.35769531 54.79286133 3.35769531 54.79286133 4.95751953 54.80371094 C11.75718664 54.90985452 11.75718664 54.90985452 17.28955078 51.34472656 C18.57797616 47.75404694 18.57797616 47.75404694 19.28955078 44.34472656 C22.58955078 44.34472656 25.88955078 44.34472656 29.28955078 44.34472656 C30.13914937 49.67402679 30.37956344 52.67211611 27.38525391 57.2668457 C22.26086887 62.85175865 18.4101504 66.2838849 10.49658203 66.66503906 C8.39952318 66.69117542 6.32242843 66.65260829 4.22729492 66.55908203 C2.09023928 66.46922995 -0.03086438 66.47697144 -2.16943359 66.49707031 C-8.39568246 66.44173878 -13.56900236 66.2392891 -18.44873047 62.02441406 C-19.56690539 60.82598579 -20.65482188 59.59859912 -21.71044922 58.34472656 C-22.42096436 57.79316895 -23.13147949 57.24161133 -23.86352539 56.67333984 C-26.658422 53.14951646 -26.4339748 49.7960692 -26.52294922 45.40722656 C-26.54574951 44.53130859 -26.5685498 43.65539062 -26.59204102 42.75292969 C-26.62979594 40.89716823 -26.65595955 39.04113996 -26.67138672 37.18505859 C-26.70999343 34.37786826 -26.83385294 31.58272458 -26.96044922 28.77832031 C-27.15033152 21.00077597 -27.18794734 13.9848518 -22.14654541 7.68035889 C-15.82444106 1.12533893 -8.98384834 -0.44583781 0 0 Z M-13.06567383 13.69262695 C-15.67670626 17.3826362 -15.67670626 17.3826362 -14.71044922 27.34472656 C-3.49044922 27.34472656 7.72955078 27.34472656 19.28955078 27.34472656 C20.0983299 18.21303425 20.0983299 18.21303425 17.57470703 14.25488281 C12.44630534 11.2729703 7.54883688 11.65962777 1.72705078 11.78222656 C0.59074219 11.77126953 -0.54556641 11.7603125 -1.71630859 11.74902344 C-7.63644707 11.66070045 -7.63644707 11.66070045 -13.06567383 13.69262695 Z " fill="#2B2B2B" transform="translate(797.71044921875,113.6552734375)"/>
<path d="M0 0 C1.99556086 -0.03948745 3.99013345 -0.12149984 5.984375 -0.20410156 C16.85351459 -0.35811771 16.85351459 -0.35811771 21.515625 3.74121094 C22.6463366 4.97796042 23.77432881 6.21720688 24.8984375 7.45996094 C25.88199219 8.00136719 26.86554688 8.54277344 27.87890625 9.10058594 C31.49907833 13.32995525 30.4022029 18.87890352 30.2109375 24.20996094 C30.1078125 28.25246094 30.0046875 32.29496094 29.8984375 36.45996094 C15.0484375 36.45996094 0.1984375 36.45996094 -15.1015625 36.45996094 C-15.049678 47.33451898 -15.049678 47.33451898 -12.2578125 51.67089844 C-7.45014907 54.39603439 -3.03481695 54.18670728 2.3984375 54.08496094 C3.94724609 54.11396484 3.94724609 54.11396484 5.52734375 54.14355469 C10.43376426 54.11190036 13.05222219 54.0912313 17.06640625 51.09667969 C18.92070784 48.42790875 19.62290575 46.67449799 19.8984375 43.45996094 C23.1984375 43.45996094 26.4984375 43.45996094 29.8984375 43.45996094 C30.45050605 47.32444082 30.74900793 49.71846363 29.8984375 53.45996094 C26.66797979 57.73797649 22.75106834 62.03364552 17.8984375 64.45996094 C13.58433993 64.78889926 9.26711658 64.85906543 4.94238281 64.91992188 C3.50682009 64.94642258 2.07144383 64.98723217 0.63671875 65.04296875 C-12.79747064 65.55823572 -12.79747064 65.55823572 -17.84375 61.17871094 C-18.96168864 59.96790943 -20.04828069 58.72740897 -21.1015625 57.45996094 C-21.81272217 56.90832275 -22.52388184 56.35668457 -23.2565918 55.78833008 C-26.05633878 52.25502494 -25.80647678 48.88492857 -25.87890625 44.48730469 C-25.89933487 43.60901505 -25.91976349 42.7307254 -25.94081116 41.82582092 C-25.97418399 39.965834 -25.99615775 38.10561263 -26.00756836 36.24536133 C-26.03872595 33.42789401 -26.14976054 30.62083082 -26.26367188 27.80566406 C-26.56634705 12.98545498 -26.56634705 12.98545498 -21.19691467 7.14637756 C-14.09425497 0.4917055 -9.47944631 0.14292939 0 0 Z M-13.3828125 13.37402344 C-15.91253182 17.32730357 -15.91253182 17.32730357 -15.1015625 26.45996094 C-3.5515625 26.45996094 7.9984375 26.45996094 19.8984375 26.45996094 C20.70940682 17.32730357 20.70940682 17.32730357 18.1796875 13.37402344 C13.06898619 10.39278101 8.20706735 10.73538443 2.3984375 10.83496094 C1.27050781 10.815625 0.14257812 10.79628906 -1.01953125 10.77636719 C-5.86896651 10.80506207 -9.14752192 10.90343726 -13.3828125 13.37402344 Z " fill="#292929" transform="translate(452.1015625,114.5400390625)"/>
<path d="M0 0 C3.3 0 6.6 0 10 0 C10.33 12.21 10.66 24.42 11 37 C14.3 33.7 17.6 30.4 21 27 C28.03431803 25.59313639 36.95807648 23.82922413 43.58203125 27.38671875 C45.58517014 29.15239185 47.27505991 30.96394058 49 33 C49.84949219 33.62720947 50.69898438 34.25441895 51.57421875 34.90063477 C55.23168619 39.57369729 54.64383017 43.83854967 54.5234375 49.609375 C54.51873444 50.73192688 54.51403137 51.85447876 54.50918579 53.01104736 C54.48785348 56.59132493 54.43121342 60.17011819 54.375 63.75 C54.35849378 66.17576738 54.34414548 68.60155046 54.33203125 71.02734375 C54.29805093 75.44647828 54.26350637 79.86546688 54.19287109 84.28417969 C54.18001068 85.17288757 54.16715027 86.06159546 54.15390015 86.97723389 C54 89 54 89 53 90 C51.50261876 90.0979057 50.00057108 90.12974864 48.5 90.125 C47.6853125 90.12757813 46.870625 90.13015625 46.03125 90.1328125 C44 90 44 90 43 89 C42.89845885 87.54794391 42.86432572 86.09108707 42.8581543 84.63549805 C42.85111984 83.707509 42.84408539 82.77951996 42.83683777 81.82341003 C42.83267349 80.81305191 42.82850922 79.80269379 42.82421875 78.76171875 C42.80101914 76.64126613 42.77690175 74.52082339 42.75195312 72.40039062 C42.71682063 69.04265762 42.68749116 65.68528707 42.67407227 62.32739258 C42.65861903 59.09671641 42.61842078 55.8671126 42.57421875 52.63671875 C42.57612717 51.63243332 42.57803558 50.62814789 42.58000183 49.59342957 C42.55574139 44.13620831 42.55574139 44.13620831 40.15136719 39.38818359 C35.74416258 36.54440631 31.06676657 36.64856253 25.99656677 37.43421936 C19.61545126 39.24247925 14.18649692 45.40276485 11 51 C8.95440113 57.57793416 9.44425818 64.51106067 9.6875 71.3125 C9.70453 73.13211543 9.71563982 74.9517963 9.72070312 76.77148438 C9.7456682 81.18471005 9.85030676 85.58931574 10 90 C6.7 90 3.4 90 0 90 C0 60.3 0 30.6 0 0 Z " fill="#262626" transform="translate(703,89)"/>
<path d="M0 0 C1.30211426 0.00507568 2.60422852 0.01015137 3.94580078 0.01538086 C12.73973366 0.50803346 17.24588839 2.71720337 23.21411133 9.18823242 C25.92649892 13.31848517 25.71151485 16.01360796 24.9375 20.8125 C21.3075 20.8125 17.6775 20.8125 13.9375 20.8125 C13.64875 19.69875 13.36 18.585 13.0625 17.4375 C12.24508671 13.80958908 12.24508671 13.80958908 9.9375 11.8125 C6.47806667 11.36158325 2.98545566 11.48843578 -0.5 11.5 C-1.46744141 11.48388672 -2.43488281 11.46777344 -3.43164062 11.45117188 C-4.36041016 11.45052734 -5.28917969 11.44988281 -6.24609375 11.44921875 C-7.52311157 11.44474731 -7.52311157 11.44474731 -8.82592773 11.44018555 C-11.5396982 11.89193754 -12.41912953 12.64399975 -14.0625 14.8125 C-14.49858804 16.98968256 -14.49858804 16.98968256 -14.375 19.3125 C-14.37113281 20.0859375 -14.36726562 20.859375 -14.36328125 21.65625 C-14.18075461 24.10574946 -14.18075461 24.10574946 -12.0625 26.8125 C-9.38069829 27.20803601 -9.38069829 27.20803601 -6.2421875 27.078125 C-5.0665625 27.08199219 -3.8909375 27.08585937 -2.6796875 27.08984375 C-0.20816744 27.07178463 2.2632937 27.03822864 4.734375 26.98828125 C10.77044837 27.03430795 14.93746875 27.09827085 19.6171875 31.171875 C20.75331717 32.35797552 21.86298199 33.57030995 22.9375 34.8125 C23.48841309 35.30637207 24.03932617 35.80024414 24.60693359 36.30908203 C27.64849109 39.74576296 26.78584442 46.13399656 26.6328125 50.5390625 C26.06551664 56.05510947 23.28853927 58.88783266 19.1015625 62.34375 C10.69560205 68.04887839 -6.18266847 66.21687871 -16.0625 64.8125 C-21.58764846 62.73419415 -24.60937808 59.16860001 -27.0625 53.8125 C-27.90738579 50.56609034 -27.80785179 49.16658305 -27.0625 45.8125 C-26.0625 44.8125 -26.0625 44.8125 -23.77734375 44.71484375 C-22.40255859 44.73224609 -22.40255859 44.73224609 -21 44.75 C-20.08089844 44.75902344 -19.16179688 44.76804688 -18.21484375 44.77734375 C-17.50457031 44.78894531 -16.79429687 44.80054688 -16.0625 44.8125 C-15.77375 45.92625 -15.485 47.04 -15.1875 48.1875 C-14.37008671 51.81541092 -14.37008671 51.81541092 -12.0625 53.8125 C-9.572889 54.12358497 -9.572889 54.12358497 -6.6875 54.078125 C-5.62015625 54.08070313 -4.5528125 54.08328125 -3.453125 54.0859375 C-2.33421875 54.07820313 -1.2153125 54.07046875 -0.0625 54.0625 C1.61585938 54.07410156 1.61585938 54.07410156 3.328125 54.0859375 C4.39546875 54.08335937 5.4628125 54.08078125 6.5625 54.078125 C7.54476562 54.07586914 8.52703125 54.07361328 9.5390625 54.07128906 C12.12188497 54.04622863 12.12188497 54.04622863 13.9375 51.8125 C14.25699731 49.21333917 14.25699731 49.21333917 14.1875 46.3125 C14.19265625 45.3328125 14.1978125 44.353125 14.203125 43.34375 C14.18825045 40.64361848 14.18825045 40.64361848 11.9375 38.8125 C9.18499509 38.60578931 9.18499509 38.60578931 5.96875 38.75 C-16.7994191 39.01584131 -16.7994191 39.01584131 -22.8125 33.75 C-26.71714504 28.33162577 -27.84824158 22.29384155 -27.02734375 15.7578125 C-25.87920426 10.18886268 -23.79927259 6.43103799 -19.46484375 2.671875 C-13.49564853 -0.52168189 -6.59681368 -0.10976445 0 0 Z " fill="#2A2A2A" transform="translate(591.0625,114.1875)"/>
<path d="M0 0 C2.63988291 0.09855992 2.63988291 0.09855992 4.984375 -0.1015625 C10.76350825 -0.17458404 14.80235026 2.49095131 18.94953918 6.36140442 C26.38798093 14.80333729 23.80596998 28.32151075 23.3984375 38.74609375 C23.34319868 41.20106224 23.2930195 43.65615011 23.24804688 46.11132812 C23.1274581 52.09637488 22.94395959 58.07692489 22.7109375 64.05859375 C21.25270538 64.08559805 19.79433075 64.10499162 18.3359375 64.12109375 C17.52382813 64.13269531 16.71171875 64.14429688 15.875 64.15625 C13.7109375 64.05859375 13.7109375 64.05859375 11.7109375 63.05859375 C11.72426117 62.18868805 11.72426117 62.18868805 11.737854 61.3012085 C11.82632779 55.26682387 11.88667172 49.23262337 11.93066406 43.19775391 C11.95078306 40.94539914 11.97808158 38.69309662 12.01269531 36.44091797 C12.06119959 33.20397044 12.08390355 29.96771328 12.1015625 26.73046875 C12.12220764 25.72304626 12.14285278 24.71562378 12.16412354 23.67767334 C12.24636057 18.2101476 12.24636057 18.2101476 9.8737793 13.44458008 C5.45514051 10.61304013 0.7843994 10.70437452 -4.29222107 11.49034119 C-10.65459513 13.30091829 -16.08945675 19.48849272 -19.2890625 25.05859375 C-21.299705 31.45269472 -20.80228913 38.19424505 -20.5390625 44.80859375 C-20.51343267 46.57153647 -20.49386004 48.33457809 -20.48046875 50.09765625 C-20.46082586 52.56174773 -20.43224583 55.02200281 -20.35675049 57.48504639 C-20.29986869 59.34216159 -20.28959686 61.2006077 -20.2890625 63.05859375 C-21.2890625 64.05859375 -21.2890625 64.05859375 -23.3203125 64.19140625 C-24.135 64.18882812 -24.9496875 64.18625 -25.7890625 64.18359375 C-26.60375 64.18617188 -27.4184375 64.18875 -28.2578125 64.19140625 C-30.2890625 64.05859375 -30.2890625 64.05859375 -31.2890625 63.05859375 C-31.38302307 61.12552877 -31.40649767 59.18900537 -31.40258789 57.25366211 C-31.40251236 56.01245102 -31.40243683 54.77123993 -31.40235901 53.49241638 C-31.39725161 52.12775635 -31.3920356 50.76309673 -31.38671875 49.3984375 C-31.3848545 48.00981192 -31.38343063 46.62118568 -31.38243103 45.2325592 C-31.37860637 41.5713826 -31.36877653 37.91024545 -31.35772705 34.24908447 C-31.34751182 30.51567112 -31.34293317 26.78225141 -31.33789062 23.04882812 C-31.32715421 15.71873198 -31.31007841 8.38866839 -31.2890625 1.05859375 C-27.6590625 1.05859375 -24.0290625 1.05859375 -20.2890625 1.05859375 C-19.9590625 4.35859375 -19.6290625 7.65859375 -19.2890625 11.05859375 C-18.24105469 9.99318359 -18.24105469 9.99318359 -17.171875 8.90625 C-16.26179687 7.98714844 -15.35171875 7.06804687 -14.4140625 6.12109375 C-13.50914062 5.20457031 -12.60421875 4.28804688 -11.671875 3.34375 C-7.77548561 -0.3929513 -5.19747918 -0.12658617 0 0 Z " fill="#2F2F2F" transform="translate(528.2890625,114.94140625)"/>
<path d="M0 0 C0.33 2.64 0.66 5.28 1 8 C1.49628906 7.43410156 1.99257813 6.86820312 2.50390625 6.28515625 C8.06988427 0.27558984 8.06988427 0.27558984 12.375 -1 C13.57125 -1 14.7675 -1 16 -1 C16.86625 -1.02320312 17.7325 -1.04640625 18.625 -1.0703125 C21.09682995 -1.11946821 23.53269795 -1.1607055 26 -1 C27 0 27 0 27.1328125 2.03125 C27.13023437 2.8459375 27.12765625 3.660625 27.125 4.5 C27.12886719 5.72203125 27.12886719 5.72203125 27.1328125 6.96875 C27 9 27 9 26 10 C25.07316406 9.98839844 24.14632812 9.97679688 23.19140625 9.96484375 C21.39509766 9.95130859 21.39509766 9.95130859 19.5625 9.9375 C18.38816406 9.90527344 17.21382812 9.87304688 16.00390625 9.83984375 C10.91373365 10.75023828 7.48080708 13.8363982 4.03149414 17.52563477 C-0.60664961 24.24635466 0.7570453 33.72741131 0.9375 41.5 C0.95312555 44.26548226 0.95505785 47.03074386 0.95594788 49.79626465 C0.96178221 51.50801688 0.97915471 53.21977703 1.00926208 54.93127441 C1.10333911 60.79332178 1.10333911 60.79332178 0 63 C-3.3 63 -6.6 63 -10 63 C-10 42.21 -10 21.42 -10 0 C-3 -1 -3 -1 0 0 Z " fill="#2F2F2F" transform="translate(853,116)"/>
<path d="M0 0 C0 2.97 0 5.94 0 9 C-2 10 -2 10 -4.94140625 9.96484375 C-12.438737 9.84567949 -12.438737 9.84567949 -18.85546875 13.2890625 C-20.40964502 15.08916878 -21.90591301 16.94157138 -23.328125 18.84765625 C-23.87984375 19.55792969 -24.4315625 20.26820313 -25 21 C-25.66 21 -26.32 21 -27 21 C-26.99476318 22.2367749 -26.98952637 23.4735498 -26.98413086 24.74780273 C-26.96608439 29.31924725 -26.95456929 33.89068859 -26.94506836 38.4621582 C-26.94002733 40.44393441 -26.93319462 42.42570689 -26.92456055 44.4074707 C-26.91248485 47.24952109 -26.90676955 50.09152247 -26.90234375 52.93359375 C-26.89718246 53.82525742 -26.89202118 54.71692108 -26.88670349 55.63560486 C-26.88650823 57.75740601 -26.9378997 59.8791078 -27 62 C-28 63 -28 63 -30.03125 63.1328125 C-30.8459375 63.13023437 -31.660625 63.12765625 -32.5 63.125 C-33.3146875 63.12757813 -34.129375 63.13015625 -34.96875 63.1328125 C-37 63 -37 63 -38 62 C-38.09396057 60.06693502 -38.11743517 58.13041162 -38.11352539 56.19506836 C-38.11344986 54.95385727 -38.11337433 53.71264618 -38.11329651 52.43382263 C-38.10818911 51.0691626 -38.1029731 49.70450298 -38.09765625 48.33984375 C-38.095792 46.95121817 -38.09436813 45.56259193 -38.09336853 44.17396545 C-38.08954387 40.51278885 -38.07971403 36.8516517 -38.06866455 33.19049072 C-38.05844932 29.45707737 -38.05387067 25.72365766 -38.04882812 21.99023438 C-38.03809171 14.66013823 -38.02101591 7.33007464 -38 0 C-34.37 0 -30.74 0 -27 0 C-26.67 2.64 -26.34 5.28 -26 8 C-25.58492188 7.43410156 -25.16984375 6.86820312 -24.7421875 6.28515625 C-21.60257173 2.5478312 -19.35366382 0.30449899 -14.4921875 -0.7890625 C-9.35442096 -1.16447342 -5.01630487 -1.25407622 0 0 Z " fill="#2F2F2F" transform="translate(349,116)"/>
<path d="M0 0 C5.10699665 3.66371499 6.44058117 5.7623247 8 12 C8.99 12.33 9.98 12.66 11 13 C15.08206901 19.84265826 14.37987367 28.28712911 14.25 35.9375 C14.24484375 37.14857422 14.2396875 38.35964844 14.234375 39.60742188 C14.17503057 46.45799442 13.84322993 53.20023307 13 60 C13.66 60.33 14.32 60.66 15 61 C15 60.01 15 59.02 15 58 C15.66 58 16.32 58 17 58 C17 56.35 17 54.7 17 53 C18.98 52.34 20.96 51.68 23 51 C21.6251967 54.82882719 19.82154694 57.85765407 17.5 61.1875 C14.12654605 66.34937548 12.64831073 70.9005868 12 77 C15.97889362 74.1351966 19.81536789 71.19053006 23.5078125 67.96484375 C24.12382324 67.42698242 24.73983398 66.88912109 25.37451172 66.33496094 C26.61336127 65.24673433 27.84689314 64.15242052 29.07470703 63.05175781 C29.65333496 62.54354492 30.23196289 62.03533203 30.828125 61.51171875 C31.3427832 61.05240967 31.85744141 60.59310059 32.38769531 60.11987305 C34.22811177 58.84155834 35.81306725 58.41634695 38 58 C36.48616068 61.3692629 34.51630039 64.0163196 32.1875 66.875 C31.11628906 68.19177734 31.11628906 68.19177734 30.0234375 69.53515625 C29.35570312 70.34855469 28.68796875 71.16195312 28 72 C27.51789063 72.59683594 27.03578125 73.19367188 26.5390625 73.80859375 C23.86843152 77.08309352 21.02618193 80.06028041 18 83 C19.65 83.33 21.3 83.66 23 84 C23 84.33 23 84.66 23 85 C20.36 85 17.72 85 15 85 C15 83.35 15 81.7 15 80 C13.35 80 11.7 80 10 80 C10.14109986 77.89551062 10.28804175 75.7914123 10.4375 73.6875 C10.51871094 72.51574219 10.59992188 71.34398437 10.68359375 70.13671875 C11 67 11 67 12 64 C11.34 64 10.68 64 10 64 C9.34 65.32 8.68 66.64 8 68 C8.53202978 64.54180645 9.19040646 61.15150121 10 57.75 C14.37417206 38.29472727 11.80575928 20.88584202 1.171875 4.06640625 C0 2 0 2 0 0 Z " fill="#ACE4A0" transform="translate(105,92)"/>
<path d="M0 0 C4.91359141 1.51756872 8.06025852 4.39182025 11.8125 7.75 C13.04915233 8.83519242 14.28742435 9.91854198 15.52734375 11 C16.12144043 11.51820313 16.71553711 12.03640625 17.32763672 12.5703125 C20.42928179 15.22187944 23.69028142 17.61700262 27 20 C26.69964844 19.16855469 26.39929688 18.33710938 26.08984375 17.48046875 C25.70957031 16.39378906 25.32929687 15.30710938 24.9375 14.1875 C24.55464844 13.10855469 24.17179687 12.02960938 23.77734375 10.91796875 C23 8 23 8 24 5 C24.66 6.65 25.32 8.3 26 10 C26.66 10 27.32 10 28 10 C27.67 7.36 27.34 4.72 27 2 C28.64419444 4.46629166 30.15858746 6.92734642 31.625 9.5 C32.07101563 10.2734375 32.51703125 11.046875 32.9765625 11.84375 C34 14 34 14 34 17 C32.35 16.01 30.7 15.02 29 14 C28.96261719 14.69867188 28.92523438 15.39734375 28.88671875 16.1171875 C28.82097656 17.02726562 28.75523438 17.93734375 28.6875 18.875 C28.62949219 19.77992188 28.57148437 20.68484375 28.51171875 21.6171875 C28 24 28 24 25 26 C24.34 27.32 23.68 28.64 23 30 C19.37 29.67 15.74 29.34 12 29 C12 28.34 12 27.68 12 27 C11.01 27 10.02 27 9 27 C9 26.34 9 25.68 9 25 C6.69 25 4.38 25 2 25 C2 23.68 2 22.36 2 21 C5.67053227 21.85728985 9.14482668 23.09264135 12.68359375 24.37890625 C15.21115437 25.05661643 17.39483574 25.10567686 20 25 C18.70873354 23.56214049 17.41695341 22.12474229 16.125 20.6875 C15.31289062 19.78128906 14.50078125 18.87507813 13.6640625 17.94140625 C11.86184342 15.95156612 10.05094018 13.98114115 8.2109375 12.02734375 C7.31632812 11.06957031 6.42171875 10.11179688 5.5 9.125 C4.6646875 8.24070313 3.829375 7.35640625 2.96875 6.4453125 C1.12176285 4.15123719 0.37409034 2.87247943 0 0 Z " fill="#5CC546" transform="translate(62,150)"/>
<path d="M0 0 C3.4848259 3.25672505 4.52091385 4.8014638 4.75 9.625 C4.80542969 10.67429688 4.86085938 11.72359375 4.91796875 12.8046875 C5.03095736 17.20586289 5.08765012 21.59801615 5 26 C5.598125 25.401875 6.19625 24.80375 6.8125 24.1875 C8.54166667 22.45833333 10.27083333 20.72916667 12 19 C11.67 20.65 11.34 22.3 11 24 C10.34 24 9.68 24 9 24 C8.67 24.99 8.34 25.98 8 27 C7.34 27 6.68 27 6 27 C5.67 27.99 5.34 28.98 5 30 C3.68 29.67 2.36 29.34 1 29 C0.91666643 24.1666528 1.04738513 19.76307437 2 15 C1.34 15 0.68 15 0 15 C0 19.29 0 23.58 0 28 C-1.32 28 -2.64 28 -4 28 C-3.67 27.34 -3.34 26.68 -3 26 C-2.70903923 24.04455365 -2.46546086 22.08195382 -2.24609375 20.1171875 C-2.11396484 18.95058594 -1.98183594 17.78398437 -1.84570312 16.58203125 C-1.71099609 15.35871094 -1.57628906 14.13539063 -1.4375 12.875 C-1.29892578 11.64394531 -1.16035156 10.41289062 -1.01757812 9.14453125 C-0.67499439 6.09671732 -0.3359537 3.04855069 0 0 Z " fill="#86D377" transform="translate(101,141)"/>
<path d="M0 0 C0 3 0 3 -2 6 C-2.595335 8.14147827 -2.595335 8.14147827 -3 10.4375 C-3.60200133 13.61413201 -4.44613827 16.15772791 -6 19 C-6.66 19 -7.32 19 -8 19 C-8 20.65 -8 22.3 -8 24 C-8.66 24 -9.32 24 -10 24 C-10.19916016 24.99580078 -10.19916016 24.99580078 -10.40234375 26.01171875 C-12 34 -12 34 -12.52734375 36.21289062 C-13.10263735 39.60522106 -13.11181706 42.82845396 -13.09765625 46.26953125 C-13.0962413 46.95053391 -13.09482635 47.63153656 -13.09336853 48.33317566 C-13.08780298 50.49299647 -13.07525703 52.65271089 -13.0625 54.8125 C-13.05748054 56.28320162 -13.05291841 57.75390488 -13.04882812 59.22460938 C-13.03784488 62.8164404 -13.02060422 66.4082098 -13 70 C-13.33 70 -13.66 70 -14 70 C-19.20053856 48.50134507 -15.34509826 26.35673272 -5 7 C-3.40326207 4.60343463 -1.72530062 2.30829242 0 0 Z " fill="#C1EFB7" transform="translate(29,82)"/>
<path d="M0 0 C1.86763484 0.06535181 3.73549207 0.12464232 5.60351562 0.17773438 C10.13709798 0.31960542 14.65978739 0.54297431 19.1875 0.8125 C19.1875 1.1425 19.1875 1.4725 19.1875 1.8125 C6.3175 1.8125 -6.5525 1.8125 -19.8125 1.8125 C-20.4725 3.1325 -21.1325 4.4525 -21.8125 5.8125 C-23.26016386 7.44382271 -24.76525503 9.02530208 -26.3125 10.5625 C-27.50359375 11.76132813 -27.50359375 11.76132813 -28.71875 12.984375 C-30.8125 14.8125 -30.8125 14.8125 -32.8125 14.8125 C-32.4825 34.9425 -32.1525 55.0725 -31.8125 75.8125 C-32.4725 75.8125 -33.1325 75.8125 -33.8125 75.8125 C-34.11583012 67.95422359 -34.34572724 60.09735538 -34.48605824 52.23466969 C-34.55347444 48.58181123 -34.64460475 44.93299922 -34.79321289 41.2824707 C-35.84576799 14.66666344 -35.84576799 14.66666344 -30.162323 7.03024292 C-21.88357414 -1.53529242 -11.069095 -0.67906744 0 0 Z " fill="#929292" transform="translate(263.8125,90.1875)"/>
<path d="M0 0 C3.12290635 0.48578543 5.99580359 0.9986012 9 2 C10.83016552 2.19845168 12.66429914 2.36182897 14.5 2.5 C17.60593842 2.73378031 20.03220722 3.01073574 23 4 C27.43365044 4.23644546 31.8732232 4.18518426 36.3125 4.1875 C38.14844727 4.20586914 38.14844727 4.20586914 40.02148438 4.22460938 C41.20677734 4.22654297 42.39207031 4.22847656 43.61328125 4.23046875 C44.69391846 4.23457764 45.77455566 4.23868652 46.88793945 4.24291992 C50.20899803 3.98368612 52.88041192 3.13321096 56 2 C58.71061275 1.77336014 61.27148292 1.9059132 64 2 C55.52425036 7.65049976 44.04588513 7.52152033 34.1875 7.4375 C32.36025391 7.42940308 32.36025391 7.42940308 30.49609375 7.42114258 C20.27676059 7.24923491 8.15774697 6.97807277 0 0 Z " fill="#91D883" transform="translate(68,214)"/>
<path d="M0 0 C1.98 0 3.96 0 6 0 C6 0.99 6 1.98 6 3 C5.01 3 4.02 3 3 3 C-11.17528431 20.85466139 -11.36441539 41.46693128 -9 63 C-13.13424273 56.7986359 -12.41537125 49.96936772 -12.5 42.75 C-12.50811707 42.069375 -12.51623413 41.38875 -12.52459717 40.6875 C-12.59080461 29.33073843 -10.9306022 21.66070946 -5 12 C-4.27991064 10.01860762 -3.59583631 8.02223232 -3 6 C-2.34 6 -1.68 6 -1 6 C-0.67 4.02 -0.34 2.04 0 0 Z " fill="#B9EBAE" transform="translate(98,89)"/>
<path d="M0 0 C5.03443572 1.53723228 8.37615194 4.59229964 12.25 8 C12.88679688 8.5465625 13.52359375 9.093125 14.1796875 9.65625 C18.85925752 13.71851504 18.85925752 13.71851504 20 16 C17.525 15.505 17.525 15.505 15 15 C15.66 16.65 16.32 18.3 17 20 C1.01030928 7.07216495 1.01030928 7.07216495 0 0 Z " fill="#9ADB8D" transform="translate(62,150)"/>
<path d="M0 0 C1.64419444 2.46629166 3.15858746 4.92734642 4.625 7.5 C5.07101563 8.2734375 5.51703125 9.046875 5.9765625 9.84375 C7 12 7 12 7 15 C5.35 14.01 3.7 13.02 2 12 C1.67 14.97 1.34 17.94 1 21 C-0.65 20.67 -2.3 20.34 -4 20 C-4 19.34 -4 18.68 -4 18 C-4.66 18 -5.32 18 -6 18 C-6.33 16.68 -6.66 15.36 -7 14 C-4.50638429 15.20381448 -2.31856917 16.45428722 0 18 C-0.45052734 16.75283203 -0.45052734 16.75283203 -0.91015625 15.48046875 C-1.48056641 13.85044922 -1.48056641 13.85044922 -2.0625 12.1875 C-2.44535156 11.10855469 -2.82820313 10.02960938 -3.22265625 8.91796875 C-4 6 -4 6 -3 3 C-2.34 4.65 -1.68 6.3 -1 8 C-0.34 8 0.32 8 1 8 C0.67 5.36 0.34 2.72 0 0 Z " fill="#ABE59E" transform="translate(89,152)"/>
<path d="M0 0 C0 0.99 0 1.98 0 3 C-0.61359375 3.08121094 -1.2271875 3.16242187 -1.859375 3.24609375 C-4.13830628 3.81193356 -4.13830628 3.81193356 -5.265625 5.84765625 C-5.59046875 6.57855469 -5.9153125 7.30945313 -6.25 8.0625 C-6.75273438 9.16271484 -6.75273438 9.16271484 -7.265625 10.28515625 C-7.50796875 10.85105469 -7.7503125 11.41695312 -8 12 C-8.99 12 -9.98 12 -11 12 C-12.35573748 13.31054623 -13.68612831 14.64748503 -15 16 C-15.804375 16.474375 -16.60875 16.94875 -17.4375 17.4375 C-20.42514365 19.25923393 -22.60322121 21.46626243 -25 24 C-23.51450473 18.73596308 -20.1162576 15.70480449 -16.3125 12 C-15.71244141 11.39671875 -15.11238281 10.7934375 -14.49414062 10.171875 C-4.20064538 0 -4.20064538 0 0 0 Z " fill="#96DC87" transform="translate(55,58)"/>
<path d="M0 0 C1.37478516 0.01740234 1.37478516 0.01740234 2.77734375 0.03515625 C3.69644531 0.04417969 4.61554687 0.05320313 5.5625 0.0625 C6.27277344 0.07410156 6.98304688 0.08570313 7.71484375 0.09765625 C8.00359375 1.21140625 8.29234375 2.32515625 8.58984375 3.47265625 C9.40725704 7.10056717 9.40725704 7.10056717 11.71484375 9.09765625 C14.23522339 9.4690154 14.23522339 9.4690154 17.16015625 9.51171875 C18.77470703 9.56972656 18.77470703 9.56972656 20.421875 9.62890625 C22.11376953 9.6753125 22.11376953 9.6753125 23.83984375 9.72265625 C25.54333984 9.78066406 25.54333984 9.78066406 27.28125 9.83984375 C30.09228331 9.93433226 32.90330608 10.01989166 35.71484375 10.09765625 C35.71484375 10.42765625 35.71484375 10.75765625 35.71484375 11.09765625 C31.63174955 11.21380554 27.54907998 11.28489082 23.46484375 11.34765625 C22.30597656 11.38117188 21.14710938 11.4146875 19.953125 11.44921875 C18.83808594 11.46210938 17.72304688 11.475 16.57421875 11.48828125 C15.54780273 11.50922852 14.52138672 11.53017578 13.46386719 11.55175781 C9.99457651 10.97867782 8.83141806 9.85333825 6.71484375 7.09765625 C6.46484375 4.34765625 6.46484375 4.34765625 6.71484375 2.09765625 C4.07484375 2.09765625 1.43484375 2.09765625 -1.28515625 2.09765625 C-1.28515625 4.73765625 -1.28515625 7.37765625 -1.28515625 10.09765625 C-1.94515625 9.76765625 -2.60515625 9.43765625 -3.28515625 9.09765625 C-3.3828125 2.9453125 -3.3828125 2.9453125 -3.28515625 1.09765625 C-2.28515625 0.09765625 -2.28515625 0.09765625 0 0 Z " fill="#BBBBBB" transform="translate(567.28515625,158.90234375)"/>
<path d="M0 0 C0.33 0 0.66 0 1 0 C1 1.98 1 3.96 1 6 C0.34 6 -0.32 6 -1 6 C-1 6.66 -1 7.32 -1 8 C-1.66 8 -2.32 8 -3 8 C-3.268125 8.763125 -3.53625 9.52625 -3.8125 10.3125 C-4.98649455 12.96943504 -5.73749364 14.24027283 -8 16 C-8.78375 16.28875 -9.5675 16.5775 -10.375 16.875 C-13.24038707 17.8993054 -13.24038707 17.8993054 -15.5625 20.6875 C-16.366875 21.450625 -17.17125 22.21375 -18 23 C-20.3125 22.8125 -20.3125 22.8125 -22 22 C-21.360625 21.896875 -20.72125 21.79375 -20.0625 21.6875 C-19.0415625 21.3471875 -19.0415625 21.3471875 -18 21 C-17.67 20.01 -17.34 19.02 -17 18 C-15.50222763 16.75759495 -13.95157146 15.57825186 -12.375 14.4375 C-7.63210996 10.7833652 -4.49134344 6.92765187 -1.27734375 1.90625 C-0.85582031 1.2771875 -0.43429688 0.648125 0 0 Z " fill="#99DA88" transform="translate(166,146)"/>
<path d="M0 0 C0 3 0 3 -2 6 C-2.595335 8.14147827 -2.595335 8.14147827 -3 10.4375 C-3.60200133 13.61413201 -4.44613827 16.15772791 -6 19 C-6.66 19 -7.32 19 -8 19 C-8 20.65 -8 22.3 -8 24 C-8.66 24 -9.32 24 -10 24 C-10.33 24.99 -10.66 25.98 -11 27 C-11 17.9021046 -6.50788244 6.50788244 0 0 Z " fill="#96DC85" transform="translate(29,82)"/>
<path d="M0 0 C1.03688965 0.01047363 2.0737793 0.02094727 3.14208984 0.03173828 C4.26357422 0.03818359 5.38505859 0.04462891 6.54052734 0.05126953 C7.71615234 0.06802734 8.89177734 0.08478516 10.10302734 0.10205078 C11.28638672 0.11107422 12.46974609 0.12009766 13.68896484 0.12939453 C16.61885257 0.15302266 19.54834075 0.18596564 22.47802734 0.22705078 C22.47802734 0.55705078 22.47802734 0.88705078 22.47802734 1.22705078 C21.51147217 1.19393799 21.51147217 1.19393799 20.52539062 1.16015625 C7.53211293 0.2223338 7.53211293 0.2223338 -4.17041016 4.52001953 C-6.78978022 7.2041083 -6.78978022 7.2041083 -8.85009766 10.07470703 C-9.67767578 11.14011719 -9.67767578 11.14011719 -10.52197266 12.22705078 C-11.51197266 12.22705078 -12.50197266 12.22705078 -13.52197266 12.22705078 C-13.52197266 8.59705078 -13.52197266 4.96705078 -13.52197266 1.22705078 C-13.19197266 1.22705078 -12.86197266 1.22705078 -12.52197266 1.22705078 C-12.19197266 4.19705078 -11.86197266 7.16705078 -11.52197266 10.22705078 C-11.03986328 9.67275391 -10.55775391 9.11845703 -10.06103516 8.54736328 C-9.11357422 7.46068359 -9.11357422 7.46068359 -8.14697266 6.35205078 C-7.52048828 5.63275391 -6.89400391 4.91345703 -6.24853516 4.17236328 C-2.76640358 0.24905666 -2.76640358 0.24905666 0 0 Z " fill="#5C5C5C" transform="translate(653.52197265625,115.77294921875)"/>
<path d="M0 0 C3.465 1.485 3.465 1.485 7 3 C7 4.65 7 6.3 7 8 C7.99 8.33 8.98 8.66 10 9 C10.66 8.34 11.32 7.68 12 7 C13.19287411 10.87684087 14 13.91621923 14 18 C13.34 18 12.68 18 12 18 C11.731875 17.195625 11.46375 16.39125 11.1875 15.5625 C10.795625 14.716875 10.40375 13.87125 10 13 C9.01 12.67 8.02 12.34 7 12 C5.4296875 10.0390625 5.4296875 10.0390625 3.875 7.625 C3.35679688 6.83351562 2.83859375 6.04203125 2.3046875 5.2265625 C1 3 1 3 0 0 Z " fill="#60C54C" transform="translate(76,142)"/>
<path d="M0 0 C-8.85577827 5.90385218 -20.57197984 5.39736878 -30.8125 5.1875 C-32.08931641 5.17396484 -33.36613281 5.16042969 -34.68164062 5.14648438 C-37.78822548 5.11157893 -40.89387016 5.06255244 -44 5 C-44 4.67 -44 4.34 -44 4 C-43.26475098 3.98541748 -42.52950195 3.97083496 -41.77197266 3.95581055 C-38.3891622 3.88060745 -35.00726189 3.78418818 -31.625 3.6875 C-30.46871094 3.66494141 -29.31242187 3.64238281 -28.12109375 3.61914062 C-21.7445247 3.42099865 -16.18128662 2.81407298 -10.16015625 0.65039062 C-6.71441953 -0.38706898 -3.57189154 -0.19843842 0 0 Z " fill="#CDF4C4" transform="translate(132,216)"/>
<path d="M0 0 C1.485 0.99 1.485 0.99 3 2 C3.1875 5.125 3.1875 5.125 3 8 C3.66 8 4.32 8 5 8 C5.10957031 8.59167969 5.21914063 9.18335938 5.33203125 9.79296875 C6.25228178 14.37925799 7.13660887 18.18214516 10 22 C10.66 22.33 11.32 22.66 12 23 C12.40729228 25.32156597 12.74438677 27.6568787 13 30 C7.77547571 25.35096326 5.69749182 19.31681558 3 13 C2.65324219 12.19046875 2.30648438 11.3809375 1.94921875 10.546875 C0.49277151 6.92991598 -0.36656313 3.91000667 0 0 Z " fill="#AFE8A3" transform="translate(16,152)"/>
<path d="M0 0 C0.66 0 1.32 0 2 0 C1.34 5.28 0.68 10.56 0 16 C0.99 16.33 1.98 16.66 3 17 C2.34 17.66 1.68 18.32 1 19 C1 18.34 1 17.68 1 17 C0.34 17 -0.32 17 -1 17 C-1.66 16.01 -2.32 15.02 -3 14 C-5.56282742 13.27034634 -5.56282742 13.27034634 -8 13 C-7.236875 12.34 -6.47375 11.68 -5.6875 11 C-2.43223306 7.79097265 -1.38543586 4.30214295 0 0 Z " fill="#5AC543" transform="translate(115,156)"/>
<path d="M0 0 C0 0.66 0 1.32 0 2 C0.99 2 1.98 2 3 2 C3 4 3 4 0.5 6.625 C-0.325 7.40875 -1.15 8.1925 -2 9 C-0.35 9.33 1.3 9.66 3 10 C3 10.33 3 10.66 3 11 C0.36 11 -2.28 11 -5 11 C-5 9.35 -5 7.7 -5 6 C-5.66 5.67 -6.32 5.34 -7 5 C-2.25 0 -2.25 0 0 0 Z " fill="#89D776" transform="translate(125,166)"/>
<path d="M0 0 C0.33 0.66 0.66 1.32 1 2 C0.10291475 4.42740716 -0.88309842 6.67046241 -2 9 C-2.4846875 10.0209375 -2.969375 11.041875 -3.46875 12.09375 C-7.72877358 20.86438679 -7.72877358 20.86438679 -10 22 C-9.67 19.69 -9.34 17.38 -9 15 C-8.34 15 -7.68 15 -7 15 C-7.33 12.03 -7.66 9.06 -8 6 C-7.01 6.66 -6.02 7.32 -5 8 C-4.34 8 -3.68 8 -3 8 C-2.690625 6.865625 -2.38125 5.73125 -2.0625 4.5625 C-1 1 -1 1 0 0 Z " fill="#98DE89" transform="translate(186,160)"/>
<path d="M0 0 C5.10699665 3.66371499 6.44058117 5.7623247 8 12 C8.99 12.33 9.98 12.66 11 13 C13.17593243 17.33395595 14.46995434 22.14380516 14 27 C12 24 12 24 12 21 C11.34 21 10.68 21 10 21 C9.78085938 20.46632813 9.56171875 19.93265625 9.3359375 19.3828125 C7.03273976 13.97123406 4.31450317 9.03704833 1.171875 4.06640625 C0 2 0 2 0 0 Z " fill="#93DB85" transform="translate(105,92)"/>
<path d="M0 0 C4.40125383 4.40125383 3.0539804 13.78627987 3.0625 19.75 C3.04690702 21.16673404 3.02820542 22.58346093 3 24 C3.598125 23.401875 4.19625 22.80375 4.8125 22.1875 C7.40625 19.59375 7.40625 19.59375 10 17 C9.67 18.65 9.34 20.3 9 22 C8.34 22 7.68 22 7 22 C6.67 22.99 6.34 23.98 6 25 C3.9375 25.6875 3.9375 25.6875 2 26 C-0.29612756 8.14350797 -0.29612756 8.14350797 0 0 Z " fill="#D2F5CA" transform="translate(103,143)"/>
<path d="M0 0 C1.00301948 3.12050504 0.86358157 4.87919487 0 8 C-0.06548492 9.58211573 -0.08578381 11.16670081 -0.0625 12.75 C-0.04896484 13.94882813 -0.04896484 13.94882813 -0.03515625 15.171875 C-0.02355469 15.77515625 -0.01195312 16.3784375 0 17 C-0.66 17 -1.32 17 -2 17 C-2.33 17.66 -2.66 18.32 -3 19 C-5.0625 19.625 -5.0625 19.625 -7 20 C-5.52404517 15.51695963 -3.96771452 11.06783525 -2.375 6.625 C-2.03082031 5.66400391 -2.03082031 5.66400391 -1.6796875 4.68359375 C-1.12037724 3.12218595 -0.56027192 1.56106299 0 0 Z " fill="#95DE86" transform="translate(174,126)"/>
<path d="M0 0 C2.89422496 0.67597544 5.64127835 1.55934942 8.4375 2.5625 C11.74667885 3.68740238 14.4675542 4.34184959 18 4 C18 3.01 18 2.02 18 1 C19.5 2.375 19.5 2.375 21 4 C21 4.66 21 5.32 21 6 C16.38 6 11.76 6 7 6 C7 5.34 7 4.68 7 4 C4.69 4 2.38 4 0 4 C0 2.68 0 1.36 0 0 Z " fill="#A6E597" transform="translate(64,171)"/>
<path d="M0 0 C2.57161458 0.03255208 5.14322917 0.06510417 7.71484375 0.09765625 C7.71484375 3.39765625 7.71484375 6.69765625 7.71484375 10.09765625 C7.38484375 10.09765625 7.05484375 10.09765625 6.71484375 10.09765625 C6.71484375 7.45765625 6.71484375 4.81765625 6.71484375 2.09765625 C4.07484375 2.09765625 1.43484375 2.09765625 -1.28515625 2.09765625 C-1.40890625 2.90203125 -1.53265625 3.70640625 -1.66015625 4.53515625 C-1.86640625 5.38078125 -2.07265625 6.22640625 -2.28515625 7.09765625 C-3.27515625 7.59265625 -3.27515625 7.59265625 -4.28515625 8.09765625 C-3.27234375 0.13984375 -3.27234375 0.13984375 0 0 Z " fill="#A0A0A0" transform="translate(936.28515625,157.90234375)"/>
<path d="M0 0 C-1.55500981 3.81684226 -4.03595495 6.19195732 -7 9 C-7 8.34 -7 7.68 -7 7 C-8.65 8.32 -10.3 9.64 -12 11 C-12.66 10.67 -13.32 10.34 -14 10 C-12.37744772 8.51814875 -10.75188112 7.03959744 -9.125 5.5625 C-8.22007812 4.73878906 -7.31515625 3.91507813 -6.3828125 3.06640625 C-2.84688091 0 -2.84688091 0 0 0 Z " fill="#C1E8B9" transform="translate(143,150)"/>
<path d="M0 0 C2.57161458 0.03255208 5.14322917 0.06510417 7.71484375 0.09765625 C7.71484375 3.39765625 7.71484375 6.69765625 7.71484375 10.09765625 C7.38484375 10.09765625 7.05484375 10.09765625 6.71484375 10.09765625 C6.71484375 7.45765625 6.71484375 4.81765625 6.71484375 2.09765625 C4.07484375 2.09765625 1.43484375 2.09765625 -1.28515625 2.09765625 C-1.61515625 3.74765625 -1.94515625 5.39765625 -2.28515625 7.09765625 C-2.61515625 7.09765625 -2.94515625 7.09765625 -3.28515625 7.09765625 C-3.32769981 5.09810879 -3.32596408 3.09723989 -3.28515625 1.09765625 C-2.28515625 0.09765625 -2.28515625 0.09765625 0 0 Z " fill="#9F9F9F" transform="translate(819.28515625,157.90234375)"/>
<path d="M0 0 C2.73693289 3.64924385 4.91061451 6.97047084 7 11 C6.67 11.66 6.34 12.32 6 13 C5.34 12.67 4.68 12.34 4 12 C4 11.34 4 10.68 4 10 C2.68 10.33 1.36 10.66 0 11 C0 7.37 0 3.74 0 0 Z " fill="#96DB89" transform="translate(34,138)"/>
<path d="M0 0 C1.98 0 3.96 0 6 0 C6 0.99 6 1.98 6 3 C5.01 3 4.02 3 3 3 C1.60272683 4.77328765 1.60272683 4.77328765 0.4375 7 C-0.81640625 9.25 -0.81640625 9.25 -2 11 C-2.66 11 -3.32 11 -4 11 C-3.67 9.35 -3.34 7.7 -3 6 C-2.34 6 -1.68 6 -1 6 C-0.67 4.02 -0.34 2.04 0 0 Z " fill="#9DE08F" transform="translate(98,89)"/>
<path d="M0 0 C4.69564393 3.31457218 7.72469104 7.36279281 11 12 C10.67 12.66 10.34 13.32 10 14 C4.33175355 10.79620853 4.33175355 10.79620853 2.75 7 C2.5025 6.01 2.255 5.02 2 4 C1.36184656 2.65278717 0.70674629 1.31252882 0 0 Z " fill="#A6E29A" transform="translate(167,72)"/>
<path d="M0 0 C1.32 0.33 2.64 0.66 4 1 C4 1.66 4 2.32 4 3 C5.65 3.33 7.3 3.66 9 4 C9.66 5.98 10.32 7.96 11 10 C7.03519703 8.32258336 4.15958323 5.87873138 1 3 C0.67 2.01 0.34 1.02 0 0 Z " fill="#95DC87" transform="translate(38,193)"/>
<path d="M0 0 C2 1 2 1 2 1 Z M-3 1 C-2.01 1.33 -1.02 1.66 0 2 C-3.3 5.3 -6.6 8.6 -10 12 C-10.33 11.34 -10.66 10.68 -11 10 C-9.85459775 8.68712379 -8.70866567 7.37470979 -7.5625 6.0625 C-6.92441406 5.33160156 -6.28632813 4.60070312 -5.62890625 3.84765625 C-4.77458541 2.87860647 -3.91348825 1.91348825 -3 1 Z " fill="#363636" transform="translate(370,117)"/>
<path d="M0 0 C0.99 0.33 1.98 0.66 3 1 C-0.3 4.3 -3.6 7.6 -7 11 C-7.33 10.01 -7.66 9.02 -8 8 C-5.36 5.36 -2.72 2.72 0 0 Z " fill="#646464" transform="translate(240,94)"/>
<path d="M0 0 C1.485 0.99 1.485 0.99 3 2 C3.1875 5.125 3.1875 5.125 3 8 C3.66 8 4.32 8 5 8 C5 9.65 5 11.3 5 13 C4.34 13 3.68 13 3 13 C-0.42857143 4.57142857 -0.42857143 4.57142857 0 0 Z " fill="#9CDD91" transform="translate(16,152)"/>
<path d="M0 0 C4.75647668 1.23316062 4.75647668 1.23316062 7 3 C8.23010815 6.27852858 8.68039396 9.52346897 9 13 C6.69995046 10.79664924 4.73441677 8.47632832 2.8125 5.9375 C2.28269531 5.24527344 1.75289063 4.55304688 1.20703125 3.83984375 C0 2 0 2 0 0 Z " fill="#A5E297" transform="translate(76,142)"/>
<path d="M0 0 C0.99 0.33 1.98 0.66 3 1 C0 4 -3 7 -6 10 C-6.99 9.67 -7.98 9.34 -9 9 C-6.03 6.03 -3.06 3.06 0 0 Z " fill="#595959" transform="translate(899,117)"/>
<path d="M0 0 C5.13217903 2.25315177 8.9096916 5.26063522 13 9 C11 10 11 10 9.0625 9.875 C6.17146457 8.64850012 5.55959446 6.6643072 4 4 C1.93299345 2.67206394 1.93299345 2.67206394 0 2 C0 1.34 0 0.68 0 0 Z " fill="#A3E396" transform="translate(150,58)"/>
<path d="M0 0 C0.66 0.33 1.32 0.66 2 1 C0.06891037 2.03290841 -1.870118 3.05098672 -3.8125 4.0625 C-4.89144531 4.63097656 -5.97039062 5.19945312 -7.08203125 5.78515625 C-10 7 -10 7 -13 6 C-11 3 -11 3 -8.90625 2.3046875 C-8.1121875 2.16289062 -7.318125 2.02109375 -6.5 1.875 C-3.14280543 1.26373364 -3.14280543 1.26373364 0 0 Z " fill="#ACE49E" transform="translate(145,209)"/>
<path d="M0 0 C1.32 0.99 2.64 1.98 4 3 C3.34 4.65 2.68 6.3 2 8 C1.67 7.34 1.34 6.68 1 6 C0.34 6 -0.32 6 -1 6 C-1.66 7.32 -2.32 8.64 -3 10 C-2.49287967 6.28111761 -1.88391785 3.26545761 0 0 Z " fill="#8AD37A" transform="translate(116,150)"/>
<path d="M0 0 C0 3.73928499 -0.91959602 4.40902253 -3.375 7.125 C-4.31472656 8.18074219 -4.31472656 8.18074219 -5.2734375 9.2578125 C-7 11 -7 11 -9 12 C-8.45015228 8.12488273 -6.72444669 6.40423494 -3.9375 3.75 C-3.20402344 3.04359375 -2.47054688 2.3371875 -1.71484375 1.609375 C-1.14894531 1.07828125 -0.58304687 0.5471875 0 0 Z " fill="#5B5B5B" transform="translate(437,117)"/>
<path d="M0 0 C0 3 0 3 -1.53125 4.60546875 C-2.1809375 5.12753906 -2.830625 5.64960938 -3.5 6.1875 C-4.1496875 6.71730469 -4.799375 7.24710938 -5.46875 7.79296875 C-5.9740625 8.19128906 -6.479375 8.58960938 -7 9 C-7.66 8.67 -8.32 8.34 -9 8 C-7.8125 5.0625 -7.8125 5.0625 -6 2 C-3.375 1.1875 -3.375 1.1875 -1 1 C-0.67 0.67 -0.34 0.34 0 0 Z " fill="#9DE28F" transform="translate(165,194)"/>
<path d="M0 0 C2.475 0.495 2.475 0.495 5 1 C6.125 5.75 6.125 5.75 5 8 C1.39345961 5.59563974 1.14547068 4.05320393 0 0 Z " fill="#68C754" transform="translate(77,165)"/>
<path d="M0 0 C-3.57631229 2.38420819 -5.98310739 3.13142447 -10.1875 3.0625 C-12.0746875 3.0315625 -12.0746875 3.0315625 -14 3 C-13.67 2.34 -13.34 1.68 -13 1 C-8.71230214 -0.29930238 -4.43489655 -0.07516774 0 0 Z " fill="#9BDE8F" transform="translate(132,216)"/>
<path d="M0 0 C0.99 0.33 1.98 0.66 3 1 C0.36 3.64 -2.28 6.28 -5 9 C-5.33 8.01 -5.66 7.02 -6 6 C-4.02 4.02 -2.04 2.04 0 0 Z " fill="#454545" transform="translate(573,118)"/>
<path d="M0 0 C3.65316671 1.24976756 4.78065836 1.67098753 7 5 C6.01 6.485 6.01 6.485 5 8 C0 2.25 0 2.25 0 0 Z " fill="#D1ECCC" transform="translate(62,150)"/>
<path d="M0 0 C0.33 0.66 0.66 1.32 1 2 C2.670625 2.185625 2.670625 2.185625 4.375 2.375 C8 3 8 3 9.9375 5.0625 C10.288125 5.701875 10.63875 6.34125 11 7 C9.68 7 8.36 7 7 7 C6.34 6.34 5.68 5.68 5 5 C3.35008418 4.29289322 1.68437744 3.62056011 0 3 C0 2.01 0 1.02 0 0 Z " fill="#74CF61" transform="translate(156,65)"/>
<path d="M0 0 C0.33 0 0.66 0 1 0 C1 1.98 1 3.96 1 6 C0.34 6 -0.32 6 -1 6 C-1 6.66 -1 7.32 -1 8 C-2.32 8.33 -3.64 8.66 -5 9 C-3.50164236 5.88802644 -1.86022073 2.91164984 0 0 Z " fill="#A0DF92" transform="translate(166,146)"/>
<path d="M0 0 C0.33 0 0.66 0 1 0 C1.33 2.64 1.66 5.28 2 8 C2.66 8 3.32 8 4 8 C4.33 9.98 4.66 11.96 5 14 C4.67 13.34 4.34 12.68 4 12 C3.34 12 2.68 12 2 12 C-0.60018816 8.09971775 -0.15085514 4.52565431 0 0 Z " fill="#8FD481" transform="translate(29,124)"/>
<path d="M0 0 C3.5786304 1.65167557 6.74820188 3.78286492 10 6 C8.02 6.99 8.02 6.99 6 8 C6 7.34 6 6.68 6 6 C5.34 6 4.68 6 4 6 C2.61061923 4.03852126 1.2739589 2.03833424 0 0 Z " fill="#B0E6A4" transform="translate(54,164)"/>
<path d="M0 0 C3.09592835 3.5087188 4.74194623 6.49197399 6 11 C3.5625 10 3.5625 10 1 8 C0.23618519 5.27285838 0.14057352 2.85832822 0 0 Z " fill="#A7E29B" transform="translate(178,86)"/>
<path d="M0 0 C1.65 0 3.3 0 5 0 C4.67 0.99 4.34 1.98 4 3 C4.66 3.33 5.32 3.66 6 4 C4.02 4.99 4.02 4.99 2 6 C1.34 4.02 0.68 2.04 0 0 Z " fill="#5CC846" transform="translate(128,210)"/>
<path d="M0 0 C0.598125 0.165 1.19625 0.33 1.8125 0.5 C4.11344336 1.1114124 4.11344336 1.1114124 7 1 C4.69 2.65 2.38 4.3 0 6 C-0.66 5.67 -1.32 5.34 -2 5 C-1.34 3.35 -0.68 1.7 0 0 Z " fill="#A5E394" transform="translate(149,203)"/>
<path d="M0 0 C0.33 0 0.66 0 1 0 C1.33 3.63 1.66 7.26 2 11 C1.01 10.67 0.02 10.34 -1 10 C-0.67 6.7 -0.34 3.4 0 0 Z " fill="#61C54B" transform="translate(118,142)"/>
<path d="M0 0 C0.99 0.33 1.98 0.66 3 1 C0.69 3.31 -1.62 5.62 -4 8 C-4.33 7.01 -4.66 6.02 -5 5 C-3.35 3.35 -1.7 1.7 0 0 Z " fill="#545454" transform="translate(778,121)"/>
<path d="M0 0 C0.33 1.32 0.66 2.64 1 4 C0.01 4.33 -0.98 4.66 -2 5 C-2.33 5.99 -2.66 6.98 -3 8 C-5.0625 8.6875 -5.0625 8.6875 -7 9 C-7 8.34 -7 7.68 -7 7 C-6.01 6.67 -5.02 6.34 -4 6 C-2.60287726 4.04402816 -1.26220093 2.04563599 0 0 Z " fill="#B1EBA7" transform="translate(112,160)"/>
<path d="M0 0 C1.95582488 2.93373731 3.56224304 5.78216298 5 9 C4.67 9.66 4.34 10.32 4 11 C1 9 1 9 0.48828125 6.8359375 C0.43027344 6.02382812 0.37226562 5.21171875 0.3125 4.375 C0.24675781 3.55773437 0.18101563 2.74046875 0.11328125 1.8984375 C0.07589844 1.27195313 0.03851563 0.64546875 0 0 Z " fill="#B8E9AC" transform="translate(89,152)"/>
<path d="M0 0 C3.45925163 1.2491742 6.14693203 2.67527795 9 5 C8.67 5.66 8.34 6.32 8 7 C7.21625 6.505 6.4325 6.01 5.625 5.5 C3.21447673 3.83462035 3.21447673 3.83462035 1 4 C0.67 2.68 0.34 1.36 0 0 Z " fill="#8DD47D" transform="translate(88,160)"/>
<path d="M0 0 C0.66 0 1.32 0 2 0 C1.67 3.3 1.34 6.6 1 10 C0.67 8.68 0.34 7.36 0 6 C-0.66 6 -1.32 6 -2 6 C-1.34 4.02 -0.68 2.04 0 0 Z " fill="#62C74E" transform="translate(115,156)"/>
<path d="M0 0 C0.66 0 1.32 0 2 0 C1.54738642 1.43931117 1.08767021 2.87638999 0.625 4.3125 C0.36976562 5.11300781 0.11453125 5.91351563 -0.1484375 6.73828125 C-1 9 -1 9 -3 12 C-2.40075776 7.80530429 -1.42500059 3.99000166 0 0 Z " fill="#64C44B" transform="translate(90,103)"/>
<path d="M0 0 C0.33 0.99 0.66 1.98 1 3 C-0.8125 6.1875 -0.8125 6.1875 -3 9 C-3.66 9 -4.32 9 -5 9 C-3.7508258 5.54074837 -2.32472205 2.85306797 0 0 Z " fill="#63C34F" transform="translate(31,81)"/>
</svg>
